<svg width="16" height="16" viewBox="0 0 16 16" fill="none" xmlns="http://www.w3.org/2000/svg">
<path d="M7.38531 2.94971C7.61198 2.40971 8.38521 2.40971 8.61188 2.94971L9.87262 5.9165L13.0992 6.1958C13.6857 6.24264 13.9188 6.97618 13.4722 7.36279L11.0259 9.48291L11.7593 12.6362C11.8925 13.2095 11.2718 13.6626 10.7652 13.356L7.9986 11.6831L5.23199 13.3491C4.72533 13.6558 4.1055 13.2027 4.23883 12.6294L4.97223 9.48291L2.52594 7.36279C2.07927 6.97613 2.31916 6.24247 2.90582 6.1958L6.12555 5.92236L7.38531 2.94971ZM7.9986 10.436L10.5123 11.9565L9.84528 9.10303L12.0591 7.18311L9.13922 6.9292L7.9986 4.23584V10.436Z" fill="#FFD130"/>
</svg>
