<svg width="292" height="301" viewBox="0 0 292 301" fill="none" xmlns="http://www.w3.org/2000/svg">
<path d="M127.786 260.91C127.786 292.943 101.874 318.91 69.9105 318.91V260.91H127.786Z" fill="#3699FF"/>
<path d="M243.536 202.91C211.572 202.91 185.661 176.942 185.661 144.91H243.536V202.91Z" fill="#D6DA34"/>
<path d="M70.3291 331.288C31.487 331.288 0 299.752 0 260.85H70.3291L70.3291 331.288Z" fill="#6ED47C"/>
<path d="M69.9105 290.51C53.5978 290.51 40.3743 277.258 40.3743 260.91H69.9105V290.51Z" fill="#D5E155"/>
<path d="M300.542 0L271.605 0C255.623 0 242.667 12.9838 242.667 29L271.605 29C287.586 29 300.542 16.0162 300.542 0Z" fill="#6ED47C"/>
<path d="M127.786 231.91H156.577C172.639 231.91 185.661 244.894 185.661 260.91H156.869C140.806 260.91 127.786 247.926 127.786 231.91Z" fill="#6ED47C"/>
<path d="M185.661 318.91L185.661 260.91C185.661 228.878 211.572 202.91 243.536 202.91V260.91C243.536 292.942 217.624 318.91 185.661 318.91Z" fill="#6ED47C"/>
<path d="M214.598 260.71V231.956C214.598 215.915 227.554 202.91 243.536 202.91V231.664C243.536 247.706 230.58 260.71 214.598 260.71Z" fill="#2D3652"/>
<path d="M168.498 202.71C168.498 193.1 176.271 185.31 185.86 185.31C195.449 185.31 203.223 193.1 203.223 202.71C203.223 212.32 195.449 220.11 185.86 220.11C176.271 220.11 168.498 212.32 168.498 202.71Z" fill="#FF743C"/>
<path d="M177.279 202.81C177.279 198.005 181.165 194.11 185.96 194.11C190.754 194.11 194.641 198.005 194.641 202.81C194.641 207.615 190.754 211.51 185.96 211.51C181.165 211.51 177.279 207.615 177.279 202.81Z" fill="#FFC700"/>
<path d="M243.536 115.71C243.536 99.6938 230.58 86.71 214.598 86.71C198.616 86.71 185.661 99.6938 185.661 115.71C185.661 131.726 198.616 144.71 214.598 144.71H243.536V115.71Z" fill="#FF743C"/>
<path d="M242.803 28.5703V49.5342C242.803 61.1121 233.432 70.498 221.872 70.498V49.5342C221.872 37.9562 231.243 28.5703 242.803 28.5703Z" fill="#A04AE3"/>
<path d="M243.536 129.71C243.536 121.426 236.834 114.71 228.568 114.71C220.301 114.71 213.6 121.426 213.6 129.71C213.6 137.994 220.301 144.71 228.568 144.71H243.536V129.71Z" fill="#FFC700"/>
<path d="M127.786 289.91C127.786 273.894 140.741 260.91 156.723 260.91C172.705 260.91 185.661 273.894 185.661 289.91C185.661 305.926 172.705 318.91 156.723 318.91C140.741 318.91 127.786 305.926 127.786 289.91Z" fill="#FF743C"/>
<path d="M140.758 289.61C140.758 280.719 147.95 273.51 156.823 273.51C165.695 273.51 172.888 280.719 172.888 289.61C172.888 298.502 165.695 305.71 156.823 305.71C147.95 305.71 140.758 298.502 140.758 289.61Z" fill="#2D3652"/>
<path d="M243.336 86.7101C243.336 54.6778 269.248 28.7101 301.211 28.7101V86.7101L243.336 86.7101Z" fill="#FF743C"/>
<path d="M301.211 202.71C269.248 202.71 243.336 176.742 243.336 144.71L301.211 144.71V202.71Z" fill="#3699FF"/>
<path d="M243.336 144.71C243.336 112.677 269.248 86.71 301.211 86.71V144.71H243.336Z" fill="#6ED47C"/>
<path d="M271.675 144.71C271.675 128.362 284.898 115.11 301.211 115.11V144.71H271.675Z" fill="#D5E155"/>
<path d="M243.536 290C243.536 306.016 256.491 319 272.473 319C288.455 319 301.411 306.016 301.411 290C301.411 273.984 288.455 261 272.473 261H243.536V290Z" fill="#FFC700"/>
<path d="M243.535 276C243.535 284.284 250.237 291 258.503 291C266.77 291 273.471 284.284 273.471 276C273.471 267.716 266.77 261 258.503 261H243.535V276Z" fill="#FF743C"/>
<path d="M272.273 202.71C288.255 202.71 301.211 215.694 301.211 231.71C301.211 247.726 288.255 260.71 272.273 260.71C256.292 260.71 243.336 247.726 243.336 231.71C243.336 215.694 256.292 202.71 272.273 202.71Z" fill="#FF743C"/>
<path d="M272.573 215.71C281.445 215.71 288.638 222.918 288.638 231.81C288.638 240.702 281.445 247.91 272.573 247.91C263.701 247.91 256.508 240.702 256.508 231.81C256.508 222.918 263.701 215.71 272.573 215.71Z" fill="#2D3652"/>
</svg>
