<svg width="16" height="16" viewBox="0 0 16 16" fill="none" xmlns="http://www.w3.org/2000/svg">
<path d="M8.00037 1.33333C11.6802 1.33351 14.6664 4.32044 14.6664 8.00033C14.6662 11.6801 11.6801 14.6662 8.00037 14.6663C4.32048 14.6663 1.33355 11.6802 1.33337 8.00033C1.33337 4.32033 4.32037 1.33333 8.00037 1.33333ZM8.00037 2.66634C5.0537 2.66634 2.66638 5.05366 2.66638 8.00033C2.66656 10.9468 5.05381 13.3333 8.00037 13.3333C10.9468 13.3332 13.3332 10.9467 13.3334 8.00033C13.3334 5.05377 10.9469 2.66652 8.00037 2.66634ZM8.00037 4.00033C9.02685 4.00041 10.0466 4.39337 10.8265 5.17318C12.3932 6.73315 12.3933 9.26649 10.8334 10.8265C9.26671 12.3865 6.73322 12.3865 5.17322 10.8265L8.00037 8.00033V4.00033Z" fill="white"/>
</svg>
