<svg width="18" height="18" viewBox="0 0 18 18" fill="none" xmlns="http://www.w3.org/2000/svg">
<path d="M9 9.75C11.0025 9.75 15 10.755 15 12.75V14.25C15 14.6625 14.6625 15 14.25 15H3.75C3.3375 15 3 14.6625 3 14.25V12.75C3 10.755 6.9975 9.75 9 9.75ZM9 11.1748C6.7725 11.1748 4.4248 12.27 4.4248 12.75V13.5752H13.5752V12.75C13.5752 12.27 11.2275 11.1748 9 11.1748ZM9 3C10.6575 3 12 4.3425 12 6C12 7.6575 10.6575 9 9 9C7.3425 9 6 7.6575 6 6C6 4.3425 7.3425 3 9 3ZM9 4.4248C8.13 4.4248 7.4248 5.13 7.4248 6C7.4248 6.87 8.13 7.5752 9 7.5752C9.87 7.5752 10.5752 6.87 10.5752 6C10.5752 5.13 9.87 4.4248 9 4.4248Z" fill="#1B1B1B" fill-opacity="0.6"/>
</svg>
